<mxfile host="65bd71144e">
    <diagram id="MYMnWnFMEgHn_TSsWDoC" name="Page-1">
        <mxGraphModel dx="1870" dy="1704" grid="1" gridSize="10" guides="1" tooltips="1" connect="1" arrows="1" fold="1" page="1" pageScale="1" pageWidth="850" pageHeight="1100" math="0" shadow="0">
            <root>
                <mxCell id="0"/>
                <mxCell id="1" parent="0"/>
                <mxCell id="2" value="" style="childLayout=tableLayout;recursiveResize=0;shadow=0;strokeColor=#E6E6E6;align=center;" parent="1" vertex="1">
                    <mxGeometry x="-581" y="-90" width="841" height="525" as="geometry"/>
                </mxCell>
                <mxCell id="3" value="" style="shape=tableRow;horizontal=0;startSize=0;swimlaneHead=0;swimlaneBody=0;top=0;left=0;bottom=0;right=0;dropTarget=0;collapsible=0;recursiveResize=0;expand=0;fontStyle=0;fillColor=none;strokeColor=inherit;align=center;" parent="2" vertex="1">
                    <mxGeometry width="841" height="44" as="geometry"/>
                </mxCell>
                <mxCell id="4" value="&lt;span style=&quot;white-space: pre;&quot;&gt;&#9;&lt;/span&gt;STEP" style="connectable=0;recursiveResize=0;strokeColor=inherit;fillColor=none;align=left;whiteSpace=wrap;html=1;fontStyle=1;labelPosition=center;verticalLabelPosition=middle;verticalAlign=middle;" parent="3" vertex="1">
                    <mxGeometry width="480" height="44" as="geometry">
                        <mxRectangle width="480" height="44" as="alternateBounds"/>
                    </mxGeometry>
                </mxCell>
                <mxCell id="5" value="COST CALCULATION" style="connectable=0;recursiveResize=0;strokeColor=inherit;fillColor=none;align=center;whiteSpace=wrap;html=1;fontStyle=1" parent="3" vertex="1">
                    <mxGeometry x="480" width="200" height="44" as="geometry">
                        <mxRectangle width="200" height="44" as="alternateBounds"/>
                    </mxGeometry>
                </mxCell>
                <mxCell id="6" value="STEP COST" style="connectable=0;recursiveResize=0;strokeColor=inherit;fillColor=none;align=center;whiteSpace=wrap;html=1;fontStyle=1" parent="3" vertex="1">
                    <mxGeometry x="680" width="161" height="44" as="geometry">
                        <mxRectangle width="161" height="44" as="alternateBounds"/>
                    </mxGeometry>
                </mxCell>
                <mxCell id="7" style="shape=tableRow;horizontal=0;startSize=0;swimlaneHead=0;swimlaneBody=0;top=0;left=0;bottom=0;right=0;dropTarget=0;collapsible=0;recursiveResize=0;expand=0;fontStyle=0;fillColor=none;strokeColor=inherit;align=center;" parent="2" vertex="1">
                    <mxGeometry y="44" width="841" height="41" as="geometry"/>
                </mxCell>
                <mxCell id="8" value="&lt;span style=&quot;white-space: pre;&quot;&gt;&#9;&lt;/span&gt;1 USER opens classifier evaluation window&amp;nbsp;" style="connectable=0;recursiveResize=0;strokeColor=inherit;fillColor=none;align=left;whiteSpace=wrap;html=1;labelPosition=center;verticalLabelPosition=middle;verticalAlign=middle;" parent="7" vertex="1">
                    <mxGeometry width="480" height="41" as="geometry">
                        <mxRectangle width="480" height="41" as="alternateBounds"/>
                    </mxGeometry>
                </mxCell>
                <mxCell id="9" value="1 x 1 x 2.5" style="connectable=0;recursiveResize=0;strokeColor=inherit;fillColor=none;align=center;whiteSpace=wrap;html=1;" parent="7" vertex="1">
                    <mxGeometry x="480" width="200" height="41" as="geometry">
                        <mxRectangle width="200" height="41" as="alternateBounds"/>
                    </mxGeometry>
                </mxCell>
                <mxCell id="10" value="2.5" style="connectable=0;recursiveResize=0;strokeColor=inherit;fillColor=none;align=center;whiteSpace=wrap;html=1;" parent="7" vertex="1">
                    <mxGeometry x="680" width="161" height="41" as="geometry">
                        <mxRectangle width="161" height="41" as="alternateBounds"/>
                    </mxGeometry>
                </mxCell>
                <mxCell id="11" style="shape=tableRow;horizontal=0;startSize=0;swimlaneHead=0;swimlaneBody=0;top=0;left=0;bottom=0;right=0;dropTarget=0;collapsible=0;recursiveResize=0;expand=0;fontStyle=0;fillColor=none;strokeColor=inherit;align=center;" parent="2" vertex="1">
                    <mxGeometry y="85" width="841" height="44" as="geometry"/>
                </mxCell>
                <mxCell id="12" value="&lt;span style=&quot;&quot;&gt;&#9;&lt;/span&gt;&lt;span style=&quot;white-space: pre;&quot;&gt;&#9;&lt;/span&gt;2 SYSTEM shows table of labels and errors, thresholds conditions" style="connectable=0;recursiveResize=0;strokeColor=inherit;fillColor=none;align=left;whiteSpace=wrap;html=1;labelPosition=center;verticalLabelPosition=middle;verticalAlign=middle;" parent="11" vertex="1">
                    <mxGeometry width="480" height="44" as="geometry">
                        <mxRectangle width="480" height="44" as="alternateBounds"/>
                    </mxGeometry>
                </mxCell>
                <mxCell id="13" value="&lt;span style=&quot;white-space: pre;&quot;&gt;&#9;&lt;/span&gt;" style="connectable=0;recursiveResize=0;strokeColor=inherit;fillColor=none;align=center;whiteSpace=wrap;html=1;" parent="11" vertex="1">
                    <mxGeometry x="480" width="200" height="44" as="geometry">
                        <mxRectangle width="200" height="44" as="alternateBounds"/>
                    </mxGeometry>
                </mxCell>
                <mxCell id="14" value="" style="connectable=0;recursiveResize=0;strokeColor=inherit;fillColor=none;align=center;whiteSpace=wrap;html=1;" parent="11" vertex="1">
                    <mxGeometry x="680" width="161" height="44" as="geometry">
                        <mxRectangle width="161" height="44" as="alternateBounds"/>
                    </mxGeometry>
                </mxCell>
                <mxCell id="15" style="shape=tableRow;horizontal=0;startSize=0;swimlaneHead=0;swimlaneBody=0;top=0;left=0;bottom=0;right=0;dropTarget=0;collapsible=0;recursiveResize=0;expand=0;fontStyle=0;fillColor=none;strokeColor=inherit;align=center;" parent="2" vertex="1">
                    <mxGeometry y="129" width="841" height="44" as="geometry"/>
                </mxCell>
                <mxCell id="16" value="&lt;div style=&quot;&quot;&gt;&lt;span style=&quot;background-color: initial;&quot;&gt;&lt;span style=&quot;white-space: pre;&quot;&gt;&#9;&lt;/span&gt;3 USER checks table and values&lt;/span&gt;&lt;/div&gt;" style="connectable=0;recursiveResize=0;strokeColor=inherit;fillColor=none;align=left;whiteSpace=wrap;html=1;labelPosition=center;verticalLabelPosition=middle;verticalAlign=middle;" parent="15" vertex="1">
                    <mxGeometry width="480" height="44" as="geometry">
                        <mxRectangle width="480" height="44" as="alternateBounds"/>
                    </mxGeometry>
                </mxCell>
                <mxCell id="17" value="1 x 2 x 2.5" style="connectable=0;recursiveResize=0;strokeColor=inherit;fillColor=none;align=center;whiteSpace=wrap;html=1;" parent="15" vertex="1">
                    <mxGeometry x="480" width="200" height="44" as="geometry">
                        <mxRectangle width="200" height="44" as="alternateBounds"/>
                    </mxGeometry>
                </mxCell>
                <mxCell id="18" value="5" style="connectable=0;recursiveResize=0;strokeColor=inherit;fillColor=none;align=center;whiteSpace=wrap;html=1;" parent="15" vertex="1">
                    <mxGeometry x="680" width="161" height="44" as="geometry">
                        <mxRectangle width="161" height="44" as="alternateBounds"/>
                    </mxGeometry>
                </mxCell>
                <mxCell id="19" style="shape=tableRow;horizontal=0;startSize=0;swimlaneHead=0;swimlaneBody=0;top=0;left=0;bottom=0;right=0;dropTarget=0;collapsible=0;recursiveResize=0;expand=0;fontStyle=0;fillColor=none;strokeColor=inherit;align=center;" parent="2" vertex="1">
                    <mxGeometry y="173" width="841" height="44" as="geometry"/>
                </mxCell>
                <mxCell id="20" value="&lt;span style=&quot;white-space: pre;&quot;&gt;&#9;&lt;/span&gt;3.1&amp;nbsp;IF total # errors &amp;lt; maximum allowed total errors &lt;br&gt;&lt;span style=&quot;white-space: pre;&quot;&gt;&#9;&lt;/span&gt;&amp;nbsp; &amp;nbsp; AND maximum consecutive errors&amp;nbsp;&amp;lt; maximum allowed consecutive errors" style="connectable=0;recursiveResize=0;strokeColor=inherit;fillColor=none;align=left;whiteSpace=wrap;html=1;labelPosition=center;verticalLabelPosition=middle;verticalAlign=middle;" parent="19" vertex="1">
                    <mxGeometry width="480" height="44" as="geometry">
                        <mxRectangle width="480" height="44" as="alternateBounds"/>
                    </mxGeometry>
                </mxCell>
                <mxCell id="21" value="0.86" style="connectable=0;recursiveResize=0;strokeColor=inherit;fillColor=none;align=center;whiteSpace=wrap;html=1;" parent="19" vertex="1">
                    <mxGeometry x="480" width="200" height="44" as="geometry">
                        <mxRectangle width="200" height="44" as="alternateBounds"/>
                    </mxGeometry>
                </mxCell>
                <mxCell id="22" value="" style="connectable=0;recursiveResize=0;strokeColor=inherit;fillColor=none;align=center;whiteSpace=wrap;html=1;" parent="19" vertex="1">
                    <mxGeometry x="680" width="161" height="44" as="geometry">
                        <mxRectangle width="161" height="44" as="alternateBounds"/>
                    </mxGeometry>
                </mxCell>
                <mxCell id="23" style="shape=tableRow;horizontal=0;startSize=0;swimlaneHead=0;swimlaneBody=0;top=0;left=0;bottom=0;right=0;dropTarget=0;collapsible=0;recursiveResize=0;expand=0;fontStyle=0;fillColor=none;strokeColor=inherit;align=center;" parent="2" vertex="1">
                    <mxGeometry y="217" width="841" height="44" as="geometry"/>
                </mxCell>
                <mxCell id="24" value="&lt;span style=&quot;white-space: pre;&quot;&gt;&#9;&lt;/span&gt;3.1.1 SYSTEM enables the submit button" style="connectable=0;recursiveResize=0;strokeColor=inherit;fillColor=none;align=left;whiteSpace=wrap;html=1;labelPosition=center;verticalLabelPosition=middle;verticalAlign=middle;" parent="23" vertex="1">
                    <mxGeometry width="480" height="44" as="geometry">
                        <mxRectangle width="480" height="44" as="alternateBounds"/>
                    </mxGeometry>
                </mxCell>
                <mxCell id="25" style="connectable=0;recursiveResize=0;strokeColor=inherit;fillColor=none;align=center;whiteSpace=wrap;html=1;" parent="23" vertex="1">
                    <mxGeometry x="480" width="200" height="44" as="geometry">
                        <mxRectangle width="200" height="44" as="alternateBounds"/>
                    </mxGeometry>
                </mxCell>
                <mxCell id="26" style="connectable=0;recursiveResize=0;strokeColor=inherit;fillColor=none;align=center;whiteSpace=wrap;html=1;" parent="23" vertex="1">
                    <mxGeometry x="680" width="161" height="44" as="geometry">
                        <mxRectangle width="161" height="44" as="alternateBounds"/>
                    </mxGeometry>
                </mxCell>
                <mxCell id="27" style="shape=tableRow;horizontal=0;startSize=0;swimlaneHead=0;swimlaneBody=0;top=0;left=0;bottom=0;right=0;dropTarget=0;collapsible=0;recursiveResize=0;expand=0;fontStyle=0;fillColor=none;strokeColor=inherit;align=center;" parent="2" vertex="1">
                    <mxGeometry y="261" width="841" height="44" as="geometry"/>
                </mxCell>
                <mxCell id="28" value="&lt;span style=&quot;white-space: pre;&quot;&gt;&#9;&lt;/span&gt;3.1.2 USER selects SUBMIT" style="connectable=0;recursiveResize=0;strokeColor=inherit;fillColor=none;align=left;whiteSpace=wrap;html=1;labelPosition=center;verticalLabelPosition=middle;verticalAlign=middle;" parent="27" vertex="1">
                    <mxGeometry width="480" height="44" as="geometry">
                        <mxRectangle width="480" height="44" as="alternateBounds"/>
                    </mxGeometry>
                </mxCell>
                <mxCell id="29" value="&lt;span style=&quot;&quot;&gt;&lt;span style=&quot;white-space: pre;&quot;&gt;0.86&lt;/span&gt;&lt;/span&gt;&amp;nbsp;x 1 x 2.5" style="connectable=0;recursiveResize=0;strokeColor=inherit;fillColor=none;align=center;whiteSpace=wrap;html=1;" parent="27" vertex="1">
                    <mxGeometry x="480" width="200" height="44" as="geometry">
                        <mxRectangle width="200" height="44" as="alternateBounds"/>
                    </mxGeometry>
                </mxCell>
                <mxCell id="30" value="2.15" style="connectable=0;recursiveResize=0;strokeColor=inherit;fillColor=none;align=center;whiteSpace=wrap;html=1;" parent="27" vertex="1">
                    <mxGeometry x="680" width="161" height="44" as="geometry">
                        <mxRectangle width="161" height="44" as="alternateBounds"/>
                    </mxGeometry>
                </mxCell>
                <mxCell id="31" style="shape=tableRow;horizontal=0;startSize=0;swimlaneHead=0;swimlaneBody=0;top=0;left=0;bottom=0;right=0;dropTarget=0;collapsible=0;recursiveResize=0;expand=0;fontStyle=0;fillColor=none;strokeColor=inherit;align=center;" parent="2" vertex="1">
                    <mxGeometry y="305" width="841" height="44" as="geometry"/>
                </mxCell>
                <mxCell id="32" value="&lt;span style=&quot;white-space: pre;&quot;&gt;&#9;&lt;/span&gt;3.2 ELSE" style="connectable=0;recursiveResize=0;strokeColor=inherit;fillColor=none;align=left;whiteSpace=wrap;html=1;labelPosition=center;verticalLabelPosition=middle;verticalAlign=middle;" parent="31" vertex="1">
                    <mxGeometry width="480" height="44" as="geometry">
                        <mxRectangle width="480" height="44" as="alternateBounds"/>
                    </mxGeometry>
                </mxCell>
                <mxCell id="33" value="0.14" style="connectable=0;recursiveResize=0;strokeColor=inherit;fillColor=none;align=center;whiteSpace=wrap;html=1;" parent="31" vertex="1">
                    <mxGeometry x="480" width="200" height="44" as="geometry">
                        <mxRectangle width="200" height="44" as="alternateBounds"/>
                    </mxGeometry>
                </mxCell>
                <mxCell id="34" value="" style="connectable=0;recursiveResize=0;strokeColor=inherit;fillColor=none;align=center;whiteSpace=wrap;html=1;" parent="31" vertex="1">
                    <mxGeometry x="680" width="161" height="44" as="geometry">
                        <mxRectangle width="161" height="44" as="alternateBounds"/>
                    </mxGeometry>
                </mxCell>
                <mxCell id="35" style="shape=tableRow;horizontal=0;startSize=0;swimlaneHead=0;swimlaneBody=0;top=0;left=0;bottom=0;right=0;dropTarget=0;collapsible=0;recursiveResize=0;expand=0;fontStyle=0;fillColor=none;strokeColor=inherit;align=center;" parent="2" vertex="1">
                    <mxGeometry y="349" width="841" height="44" as="geometry"/>
                </mxCell>
                <mxCell id="36" value="&lt;span style=&quot;white-space: pre;&quot;&gt;&#9;&lt;/span&gt;3.2.1 SYSTEM disables the submit button" style="connectable=0;recursiveResize=0;strokeColor=inherit;fillColor=none;align=left;whiteSpace=wrap;html=1;labelPosition=center;verticalLabelPosition=middle;verticalAlign=middle;" parent="35" vertex="1">
                    <mxGeometry width="480" height="44" as="geometry">
                        <mxRectangle width="480" height="44" as="alternateBounds"/>
                    </mxGeometry>
                </mxCell>
                <mxCell id="37" style="connectable=0;recursiveResize=0;strokeColor=inherit;fillColor=none;align=center;whiteSpace=wrap;html=1;" parent="35" vertex="1">
                    <mxGeometry x="480" width="200" height="44" as="geometry">
                        <mxRectangle width="200" height="44" as="alternateBounds"/>
                    </mxGeometry>
                </mxCell>
                <mxCell id="38" style="connectable=0;recursiveResize=0;strokeColor=inherit;fillColor=none;align=center;whiteSpace=wrap;html=1;" parent="35" vertex="1">
                    <mxGeometry x="680" width="161" height="44" as="geometry">
                        <mxRectangle width="161" height="44" as="alternateBounds"/>
                    </mxGeometry>
                </mxCell>
                <mxCell id="39" style="shape=tableRow;horizontal=0;startSize=0;swimlaneHead=0;swimlaneBody=0;top=0;left=0;bottom=0;right=0;dropTarget=0;collapsible=0;recursiveResize=0;expand=0;fontStyle=0;fillColor=none;strokeColor=inherit;align=center;" parent="2" vertex="1">
                    <mxGeometry y="393" width="841" height="44" as="geometry"/>
                </mxCell>
                <mxCell id="40" value="&#9;&lt;span style=&quot;white-space: pre;&quot;&gt;&#9;&lt;/span&gt;3.2.2 USER selects REFUSE" style="connectable=0;recursiveResize=0;strokeColor=inherit;fillColor=none;align=left;whiteSpace=wrap;html=1;labelPosition=center;verticalLabelPosition=middle;verticalAlign=middle;" parent="39" vertex="1">
                    <mxGeometry width="480" height="44" as="geometry">
                        <mxRectangle width="480" height="44" as="alternateBounds"/>
                    </mxGeometry>
                </mxCell>
                <mxCell id="41" value="&lt;span style=&quot;&quot;&gt;&lt;span style=&quot;white-space: pre;&quot;&gt;0.14&lt;/span&gt;&lt;/span&gt;&amp;nbsp;x 1 x 2.5" style="connectable=0;recursiveResize=0;strokeColor=inherit;fillColor=none;align=center;whiteSpace=wrap;html=1;" parent="39" vertex="1">
                    <mxGeometry x="480" width="200" height="44" as="geometry">
                        <mxRectangle width="200" height="44" as="alternateBounds"/>
                    </mxGeometry>
                </mxCell>
                <mxCell id="42" value="0.35" style="connectable=0;recursiveResize=0;strokeColor=inherit;fillColor=none;align=center;whiteSpace=wrap;html=1;" parent="39" vertex="1">
                    <mxGeometry x="680" width="161" height="44" as="geometry">
                        <mxRectangle width="161" height="44" as="alternateBounds"/>
                    </mxGeometry>
                </mxCell>
                <mxCell id="43" style="shape=tableRow;horizontal=0;startSize=0;swimlaneHead=0;swimlaneBody=0;top=0;left=0;bottom=0;right=0;dropTarget=0;collapsible=0;recursiveResize=0;expand=0;fontStyle=0;fillColor=none;strokeColor=inherit;align=center;" parent="2" vertex="1">
                    <mxGeometry y="437" width="841" height="44" as="geometry"/>
                </mxCell>
                <mxCell id="44" value="&lt;span style=&quot;white-space: pre;&quot;&gt;&#9;&lt;/span&gt;4&amp;nbsp;USER closes classifier evaluation window&amp;nbsp;" style="connectable=0;recursiveResize=0;strokeColor=inherit;fillColor=none;align=left;whiteSpace=wrap;html=1;labelPosition=center;verticalLabelPosition=middle;verticalAlign=middle;" parent="43" vertex="1">
                    <mxGeometry width="480" height="44" as="geometry">
                        <mxRectangle width="480" height="44" as="alternateBounds"/>
                    </mxGeometry>
                </mxCell>
                <mxCell id="45" value="1 x 1 x 2.5" style="connectable=0;recursiveResize=0;strokeColor=inherit;fillColor=none;align=center;whiteSpace=wrap;html=1;" parent="43" vertex="1">
                    <mxGeometry x="480" width="200" height="44" as="geometry">
                        <mxRectangle width="200" height="44" as="alternateBounds"/>
                    </mxGeometry>
                </mxCell>
                <mxCell id="46" value="2.5" style="connectable=0;recursiveResize=0;strokeColor=inherit;fillColor=none;align=center;whiteSpace=wrap;html=1;" parent="43" vertex="1">
                    <mxGeometry x="680" width="161" height="44" as="geometry">
                        <mxRectangle width="161" height="44" as="alternateBounds"/>
                    </mxGeometry>
                </mxCell>
                <mxCell id="47" style="shape=tableRow;horizontal=0;startSize=0;swimlaneHead=0;swimlaneBody=0;top=0;left=0;bottom=0;right=0;dropTarget=0;collapsible=0;recursiveResize=0;expand=0;fontStyle=0;fillColor=none;strokeColor=inherit;align=center;" parent="2" vertex="1">
                    <mxGeometry y="481" width="841" height="44" as="geometry"/>
                </mxCell>
                <mxCell id="48" style="connectable=0;recursiveResize=0;strokeColor=inherit;fillColor=none;align=left;whiteSpace=wrap;html=1;labelPosition=center;verticalLabelPosition=middle;verticalAlign=middle;" parent="47" vertex="1">
                    <mxGeometry width="480" height="44" as="geometry">
                        <mxRectangle width="480" height="44" as="alternateBounds"/>
                    </mxGeometry>
                </mxCell>
                <mxCell id="49" value="&lt;span style=&quot;font-weight: 700;&quot;&gt;HUMAN TASK COST&lt;/span&gt;" style="connectable=0;recursiveResize=0;strokeColor=inherit;fillColor=none;align=center;whiteSpace=wrap;html=1;" parent="47" vertex="1">
                    <mxGeometry x="480" width="200" height="44" as="geometry">
                        <mxRectangle width="200" height="44" as="alternateBounds"/>
                    </mxGeometry>
                </mxCell>
                <mxCell id="50" value="12.5" style="connectable=0;recursiveResize=0;strokeColor=inherit;fillColor=none;align=center;whiteSpace=wrap;html=1;fontStyle=1" parent="47" vertex="1">
                    <mxGeometry x="680" width="161" height="44" as="geometry">
                        <mxRectangle width="161" height="44" as="alternateBounds"/>
                    </mxGeometry>
                </mxCell>
            </root>
        </mxGraphModel>
    </diagram>
</mxfile>